<?xml version="1.0" encoding="utf-8"?>
<!-- Generator: Adobe Illustrator 24.1.2, SVG Export Plug-In . SVG Version: 6.00 Build 0)  -->
<svg version="1.1" id="Capa_1" xmlns="http://www.w3.org/2000/svg" xmlns:xlink="http://www.w3.org/1999/xlink" x="0px" y="0px"
	 viewBox="0 0 364.03 543.35" style="enable-background:new 0 0 364.03 543.35;" xml:space="preserve">
<style type="text/css">
	.st0{fill:#00DFC4;}
	.st1{opacity:0.31;fill:url(#SVGID_1_);}
</style>
<path class="st0" d="M181.75,0C81.48,0.14-0.31,82.31,0,182.58c0.09,29.29,7.11,56.95,19.49,81.44c3.98,7.88,8.52,15.43,13.57,22.6
	l7.25,9.61l141.71,187.81l0.05-0.07l45.14,59.39l33.19-43.99c11.46-15.19,11.43-36.15-0.09-51.31l-25.67-33.77l89.09-118.07
	l7.23-9.59c5.05-7.17,9.59-14.73,13.57-22.61c12.46-24.64,19.49-52.5,19.49-82.01C364.03,81.4,282.39-0.14,181.75,0z M261.43,222.72
	c-2.08,4.12-4.46,8.07-7.1,11.83l-3.78,5.01l-74.13,98.24l-74.12-98.24l-3.79-5.03c-2.64-3.75-5.01-7.7-7.1-11.82
	c-6.52-12.89-10.19-27.46-10.19-42.9c0-52.58,42.63-95.21,95.21-95.21s95.21,42.63,95.21,95.21
	C271.62,195.26,267.94,209.83,261.43,222.72z"/>
<linearGradient id="SVGID_1_" gradientUnits="userSpaceOnUse" x1="300.566" y1="279.5984" x2="195.557" y2="367.7115">
	<stop  offset="0.5453" style="stop-color:#1D1D1B;stop-opacity:0"/>
	<stop  offset="1" style="stop-color:#000000"/>
</linearGradient>
<polygon class="st1" points="234.64,414.29 319.36,302 245.11,246.76 176.41,337.81 "/>
</svg>
