<?xml version="1.0" encoding="utf-8"?>
<!-- Generator: Adobe Illustrator 24.1.2, SVG Export Plug-In . SVG Version: 6.00 Build 0)  -->
<svg version="1.1" id="Capa_1" xmlns="http://www.w3.org/2000/svg" xmlns:xlink="http://www.w3.org/1999/xlink" x="0px" y="0px"
	 viewBox="0 0 1074.78 175.31" style="enable-background:new 0 0 1074.78 175.31;" xml:space="preserve">
<style type="text/css">
	.st0{fill:#47FFFF;}
	.st1{fill:#019392;}
</style>
<path class="st0" d="M148.94,175.31c-5.82-4.01-11.21-7.73-16.61-11.44c-12.68-8.74-25.38-17.45-38.03-26.24
	c-1.65-1.14-2.85-1.15-4.51,0c-17.5,12.14-35.05,24.2-52.59,36.28c-0.54,0.37-1.09,0.72-2.02,1.34c0.25-0.97,0.39-1.56,0.56-2.15
	c6.09-20.52,12.16-41.05,18.31-61.56c0.59-1.96,0.08-3.07-1.48-4.26C35.74,94.45,18.96,81.54,2.16,68.65
	c-0.6-0.46-1.19-0.94-2.16-1.71c1.54-0.07,2.6-0.14,3.66-0.17c20.88-0.53,41.75-1.08,62.63-1.54c2.03-0.04,2.99-0.78,3.64-2.66
	C77.02,42.36,84.16,22.19,91.29,2c0.19-0.54,0.42-1.07,0.79-2c0.91,2.56,1.7,4.73,2.47,6.91c6.54,18.54,13.1,37.08,19.58,55.64
	c0.65,1.86,1.59,2.63,3.63,2.68c21.18,0.47,42.36,1.04,63.54,1.58c0.77,0.02,1.54,0.08,2.68,0.14c-0.72,0.61-1.15,1.01-1.61,1.36
	c-10.36,7.95-20.72,15.9-31.08,23.85c-6.58,5.05-13.13,10.15-19.78,15.12c-1.66,1.24-2.05,2.42-1.45,4.43
	c6.11,20.33,12.13,40.68,18.17,61.03C148.44,173.41,148.61,174.1,148.94,175.31z"/>
<path class="st0" d="M373.37,175.31c-5.82-4.01-11.21-7.73-16.61-11.44c-12.68-8.74-25.38-17.45-38.03-26.24
	c-1.65-1.14-2.85-1.15-4.51,0c-17.5,12.14-35.05,24.2-52.59,36.28c-0.54,0.37-1.09,0.72-2.02,1.34c0.25-0.97,0.39-1.56,0.56-2.15
	c6.09-20.52,12.16-41.05,18.31-61.56c0.59-1.96,0.08-3.07-1.48-4.26c-16.83-12.84-33.62-25.75-50.42-38.64
	c-0.6-0.46-1.19-0.94-2.16-1.71c1.54-0.07,2.6-0.14,3.66-0.17c20.88-0.53,41.75-1.08,62.63-1.54c2.03-0.04,2.99-0.78,3.64-2.66
	c7.07-20.2,14.22-40.38,21.35-60.57c0.19-0.54,0.42-1.07,0.79-2c0.91,2.56,1.7,4.73,2.47,6.91c6.54,18.54,13.1,37.08,19.58,55.64
	c0.65,1.86,1.59,2.63,3.63,2.68c21.18,0.47,42.36,1.04,63.54,1.58c0.77,0.02,1.54,0.08,2.68,0.14c-0.72,0.61-1.15,1.01-1.61,1.36
	c-10.36,7.95-20.72,15.9-31.08,23.85c-6.58,5.05-13.13,10.15-19.78,15.12c-1.66,1.24-2.05,2.42-1.45,4.43
	c6.11,20.33,12.13,40.68,18.17,61.03C372.86,173.41,373.04,174.1,373.37,175.31z"/>
<path class="st0" d="M605.45,175.31c-5.82-4.01-11.21-7.73-16.61-11.44c-12.68-8.74-25.38-17.45-38.03-26.24
	c-1.65-1.14-2.85-1.15-4.51,0c-17.5,12.14-35.05,24.2-52.59,36.28c-0.54,0.37-1.09,0.72-2.02,1.34c0.25-0.97,0.39-1.56,0.56-2.15
	c6.09-20.52,12.16-41.05,18.31-61.56c0.59-1.96,0.08-3.07-1.48-4.26c-16.83-12.84-33.62-25.75-50.42-38.64
	c-0.6-0.46-1.19-0.94-2.16-1.71c1.54-0.07,2.6-0.14,3.66-0.17c20.88-0.53,41.75-1.08,62.63-1.54c2.03-0.04,2.99-0.78,3.64-2.66
	c7.07-20.2,14.22-40.38,21.35-60.57c0.19-0.54,0.42-1.07,0.79-2c0.91,2.56,1.7,4.73,2.47,6.91c6.54,18.54,13.1,37.08,19.58,55.64
	c0.65,1.86,1.59,2.63,3.63,2.68c21.18,0.47,42.36,1.04,63.54,1.58c0.77,0.02,1.54,0.08,2.68,0.14c-0.72,0.61-1.15,1.01-1.61,1.36
	c-10.36,7.95-20.72,15.9-31.08,23.85c-6.58,5.05-13.13,10.15-19.78,15.12c-1.66,1.24-2.05,2.42-1.45,4.43
	c6.11,20.33,12.13,40.68,18.17,61.03C604.95,173.41,605.12,174.1,605.45,175.31z"/>
<path class="st0" d="M832.18,175.31c-5.82-4.01-11.21-7.73-16.61-11.44c-12.68-8.74-25.38-17.45-38.03-26.24
	c-1.65-1.14-2.85-1.15-4.51,0c-17.5,12.14-35.05,24.2-52.59,36.28c-0.54,0.37-1.09,0.72-2.02,1.34c0.25-0.97,0.39-1.56,0.56-2.15
	c6.09-20.52,12.16-41.05,18.31-61.56c0.59-1.96,0.08-3.07-1.48-4.26c-16.83-12.84-33.62-25.75-50.42-38.64
	c-0.6-0.46-1.19-0.94-2.16-1.71c1.54-0.07,2.6-0.14,3.66-0.17c20.88-0.53,41.75-1.08,62.63-1.54c2.03-0.04,2.99-0.78,3.64-2.66
	c7.07-20.2,14.22-40.38,21.35-60.57c0.19-0.54,0.42-1.07,0.79-2c0.91,2.56,1.7,4.73,2.47,6.91c6.54,18.54,13.1,37.08,19.58,55.64
	c0.65,1.86,1.59,2.63,3.63,2.68c21.18,0.47,42.36,1.04,63.54,1.58c0.77,0.02,1.54,0.08,2.68,0.14c-0.72,0.61-1.15,1.01-1.61,1.36
	c-10.36,7.95-20.72,15.9-31.08,23.85c-6.58,5.05-13.13,10.15-19.78,15.12c-1.66,1.24-2.05,2.42-1.45,4.43
	c6.11,20.33,12.13,40.68,18.17,61.03C831.67,173.41,831.84,174.1,832.18,175.31z"/>
<path class="st1" d="M1039.75,175.31c-5.82-4.01-11.21-7.73-16.61-11.44c-12.68-8.74-25.38-17.45-38.03-26.24
	c-1.65-1.14-2.85-1.15-4.51,0c-17.5,12.14-35.05,24.2-52.59,36.28c-0.54,0.37-1.09,0.72-2.02,1.34c0.25-0.97,0.39-1.56,0.56-2.15
	c6.09-20.52,12.16-41.05,18.31-61.56c0.59-1.96,0.08-3.07-1.48-4.26c-16.83-12.84-33.62-25.75-50.42-38.64
	c-0.6-0.46-1.19-0.94-2.16-1.71c1.54-0.07,2.6-0.14,3.66-0.17c20.88-0.53,41.75-1.08,62.63-1.54c2.03-0.04,2.99-0.78,3.64-2.66
	c7.07-20.2,14.22-40.38,21.35-60.57c0.19-0.54,0.42-1.07,0.79-2c0.91,2.56,1.7,4.73,2.47,6.91c6.54,18.54,13.1,37.08,19.58,55.64
	c0.65,1.86,1.59,2.63,3.63,2.68c21.18,0.47,42.36,1.04,63.54,1.58c0.77,0.02,1.54,0.08,2.68,0.14c-0.72,0.61-1.15,1.01-1.61,1.36
	c-10.36,7.95-20.72,15.9-31.08,23.85c-6.58,5.05-13.13,10.15-19.78,15.12c-1.66,1.24-2.05,2.42-1.45,4.43
	c6.11,20.33,12.13,40.68,18.17,61.03C1039.24,173.41,1039.42,174.1,1039.75,175.31z"/>
</svg>
